<?xml version="1.0" standalone="no"?>
<!DOCTYPE svg PUBLIC "-//W3C//DTD SVG 20010904//EN"
 "http://www.w3.org/TR/2001/REC-SVG-20010904/DTD/svg10.dtd">
<svg version="1.0" xmlns="http://www.w3.org/2000/svg"
 width="700.000000pt" height="700.000000pt" viewBox="0 0 700.000000 700.000000"
 preserveAspectRatio="xMidYMid meet">
<metadata>
Created by potrace 1.11, written by Peter Selinger 2001-2013
</metadata>
<g transform="translate(0.000000,700.000000) scale(0.100000,-0.100000)"
fill="#000000" stroke="none">
<path d="M5139 5806 c-2 -3 -29 -7 -59 -10 -99 -10 -143 -18 -256 -46 -289
-74 -511 -201 -721 -413 -97 -98 -216 -243 -211 -256 3 -8 43 -45 204 -190 88
-80 237 -215 273 -249 20 -18 38 -31 42 -30 4 2 34 39 67 83 135 180 314 317
497 380 117 40 206 53 350 51 167 -4 212 -12 315 -60 201 -92 308 -264 314
-503 6 -233 -68 -381 -243 -487 -64 -40 -183 -82 -256 -91 -27 -4 -54 -10 -60
-13 -5 -3 -138 -7 -295 -8 -157 -1 -291 -3 -297 -3 -10 -1 -13 -77 -13 -346
l0 -345 278 -1 c152 -1 286 -3 297 -4 246 -27 399 -88 515 -205 110 -109 152
-221 155 -414 2 -143 -16 -241 -66 -344 -89 -184 -262 -299 -513 -340 -57 -9
-289 -8 -356 1 -197 28 -389 126 -525 267 -91 94 -135 151 -199 258 -21 35
-41 62 -46 60 -4 -2 -20 -13 -36 -26 -16 -12 -135 -103 -264 -202 -282 -215
-308 -237 -294 -247 6 -5 29 -36 52 -70 268 -398 670 -642 1167 -709 28 -4 64
-8 80 -11 17 -2 113 -5 215 -7 294 -5 522 29 766 114 346 121 628 359 765 647
33 68 81 203 73 203 -3 0 -1 8 5 17 9 18 17 68 31 183 8 70 5 242 -5 300 -41
248 -125 420 -281 577 -146 147 -351 252 -596 307 -19 4 -28 13 -28 25 0 15
12 22 53 31 167 40 357 139 484 254 125 113 236 304 273 471 7 28 14 59 17 70
10 33 11 323 2 363 -4 20 -10 48 -12 62 -18 101 -100 291 -159 372 -49 67
-216 226 -283 270 -196 128 -439 213 -725 253 -53 8 -485 17 -491 11z"/>
<path d="M1410 5732 c-15 -5 -515 -282 -560 -311 -14 -8 -27 -16 -30 -16 -3 0
-25 -12 -50 -27 -25 -14 -94 -53 -155 -87 -60 -34 -117 -66 -125 -71 -8 -6
-24 -14 -35 -19 -11 -5 -55 -30 -98 -55 -43 -25 -79 -46 -81 -46 -5 0 -179
-99 -184 -105 -4 -4 295 -585 307 -596 3 -4 74 32 156 78 83 47 168 95 190
108 23 12 144 81 270 152 127 71 256 145 289 162 32 18 80 46 107 62 l49 28 0
-1484 0 -1485 -567 0 -568 0 0 -335 c0 -184 2 -335 5 -336 7 -1 2931 -1 2948
0 9 1 12 75 12 336 l0 335 -510 0 -510 0 0 1858 0 1858 -423 0 c-232 0 -429
-2 -437 -4z"/>
</g>
</svg>
