<?xml version="1.0" encoding="UTF-8"?>
<svg width="74px" height="74px" viewBox="0 0 74 74" version="1.1" xmlns="http://www.w3.org/2000/svg" xmlns:xlink="http://www.w3.org/1999/xlink">
    <!-- Generator: Sketch 43.2 (39069) - http://www.bohemiancoding.com/sketch -->
    <title>13</title>
    <desc>Created with Sketch.</desc>
    <defs></defs>
    <g id="Page-1" stroke="none" stroke-width="1" fill="none" fill-rule="evenodd">
        <path d="M34.759318,59.7622161 L34.759318,52.6486427 L24.0090876,52.6486427 L24.0090876,13.3577839 L14.9178433,13.3577839 L0.916,21.2026593 L4.23397235,27.5849307 L15.4487189,21.2691413 L15.4487189,52.6486427 L3.43765899,52.6486427 L3.43765899,59.7622161 L34.759318,59.7622161 Z M50.6192258,32.1057064 L50.6192258,39.4187258 L55.1980276,39.4187258 C60.7058618,39.4187258 63.8247558,41.6791136 63.8247558,45.9339612 L63.8247558,46.3993352 C63.8247558,50.7206648 60.9712995,53.3799446 55.8616221,53.3799446 C50.6855853,53.3799446 47.8984885,50.7206648 45.8413456,46.9976731 L39.4044793,51.9173407 C42.3242949,56.4381163 46.8367373,60.56 55.8616221,60.56 C66.080977,60.56 72.916,55.1084765 72.916,46.9311911 C72.916,40.3494737 68.6026359,36.626482 63.2275207,35.6292521 L63.2275207,35.2303601 C68.0717604,34.2331302 72.1196866,30.6431025 72.1196866,24.659723 C72.1196866,17.2137396 65.7491797,12.56 56.3924977,12.56 C48.5620829,12.56 44.1823594,15.9505817 41.0634654,20.2719114 L46.637659,25.3245429 C48.8938802,21.8009972 52.0791336,19.7400554 56.1270599,19.7400554 C60.3077051,19.7400554 62.9620829,22.0669252 62.9620829,25.8563989 L62.9620829,26.3217729 C62.9620829,29.6458726 60.5067834,32.1057064 55.1980276,32.1057064 L50.6192258,32.1057064 Z" id="13" fill="#00BFFF"></path>
    </g>
</svg>